<svg width="20" height="20" viewBox="0 0 20 20" fill="none" xmlns="http://www.w3.org/2000/svg">
<path d="M15 10L15.5303 10.5303C15.8232 10.2374 15.8232 9.76256 15.5303 9.46967L15 10ZM5 9.25C4.58579 9.25 4.25 9.58579 4.25 10C4.25 10.4142 4.58579 10.75 5 10.75V9.25ZM10.4697 13.4697C10.1768 13.7626 10.1768 14.2374 10.4697 14.5303C10.7626 14.8232 11.2374 14.8232 11.5303 14.5303L10.4697 13.4697ZM11.5303 5.46967C11.2374 5.17678 10.7626 5.17678 10.4697 5.46967C10.1768 5.76256 10.1768 6.23744 10.4697 6.53033L11.5303 5.46967ZM15 9.25L5 9.25V10.75L15 10.75V9.25ZM11.5303 14.5303L15.5303 10.5303L14.4697 9.46967L10.4697 13.4697L11.5303 14.5303ZM15.5303 9.46967L11.5303 5.46967L10.4697 6.53033L14.4697 10.5303L15.5303 9.46967ZM18.25 10C18.25 14.5563 14.5563 18.25 10 18.25V19.75C15.3848 19.75 19.75 15.3848 19.75 10H18.25ZM10 18.25C5.44365 18.25 1.75 14.5563 1.75 10H0.25C0.25 15.3848 4.61522 19.75 10 19.75V18.25ZM1.75 10C1.75 5.44365 5.44365 1.75 10 1.75V0.25C4.61522 0.25 0.25 4.61522 0.25 10H1.75ZM10 1.75C14.5563 1.75 18.25 5.44365 18.25 10H19.75C19.75 4.61522 15.3848 0.25 10 0.25V1.75Z" fill="#3A495F"/>
</svg>
