<svg width="18" height="20" viewBox="0 0 18 20" fill="none" xmlns="http://www.w3.org/2000/svg">
<path d="M1 15.002L0.32918 14.6665C0.212934 14.899 0.225357 15.1751 0.362012 15.3963C0.498667 15.6174 0.740067 15.752 1 15.752L1 15.002ZM17 15.002V15.752C17.2599 15.752 17.5013 15.6174 17.638 15.3963C17.7746 15.1751 17.7871 14.899 17.6708 14.6665L17 15.002ZM3.75 7.00195C3.75 4.10246 6.10051 1.75195 9 1.75195V0.251953C5.27208 0.251953 2.25 3.27403 2.25 7.00195H3.75ZM9 1.75195C11.8995 1.75195 14.25 4.10246 14.25 7.00195H15.75C15.75 3.27403 12.7279 0.251953 9 0.251953V1.75195ZM2.25 7.00195C2.25 8.88851 1.77601 10.8022 1.28849 12.2648C1.04622 12.9916 0.804042 13.5969 0.623141 14.019C0.532771 14.2299 0.457917 14.3945 0.4063 14.5051C0.380498 14.5604 0.360523 14.6021 0.347341 14.6294C0.340752 14.643 0.335862 14.653 0.332794 14.6592C0.33126 14.6623 0.330182 14.6645 0.329574 14.6657C0.329271 14.6664 0.329085 14.6667 0.329018 14.6669C0.328985 14.6669 0.328982 14.6669 0.329008 14.6669C0.329022 14.6669 0.329065 14.6668 0.329071 14.6668C0.329122 14.6667 0.32918 14.6665 1 15.002C1.67082 15.3374 1.67089 15.3372 1.67097 15.3371C1.67101 15.337 1.6711 15.3368 1.67117 15.3367C1.67132 15.3364 1.6715 15.336 1.67171 15.3356C1.67213 15.3347 1.67267 15.3337 1.67332 15.3323C1.67464 15.3297 1.67643 15.3261 1.67868 15.3215C1.68318 15.3123 1.68952 15.2994 1.69758 15.2827C1.7137 15.2494 1.73669 15.2013 1.76557 15.1394C1.82333 15.0157 1.90473 14.8365 2.00186 14.6099C2.19596 14.157 2.45378 13.5123 2.71151 12.7391C3.22399 11.2017 3.75 9.11539 3.75 7.00195H2.25ZM1 15.752H17V14.252H1V15.752ZM17 15.002C17.6708 14.6665 17.6709 14.6667 17.6709 14.6668C17.6709 14.6668 17.671 14.6669 17.671 14.6669C17.671 14.6669 17.671 14.6669 17.671 14.6669C17.6709 14.6667 17.6707 14.6664 17.6704 14.6657C17.6698 14.6645 17.6687 14.6623 17.6672 14.6592C17.6641 14.653 17.6592 14.643 17.6527 14.6294C17.6395 14.6021 17.6195 14.5604 17.5937 14.5051C17.5421 14.3945 17.4672 14.2299 17.3769 14.019C17.196 13.5969 16.9538 12.9916 16.7115 12.2648C16.224 10.8022 15.75 8.88851 15.75 7.00195H14.25C14.25 9.11539 14.776 11.2017 15.2885 12.7391C15.5462 13.5123 15.804 14.157 15.9981 14.6099C16.0953 14.8365 16.1767 15.0157 16.2344 15.1394C16.2633 15.2013 16.2863 15.2494 16.3024 15.2827C16.3105 15.2994 16.3168 15.3123 16.3213 15.3215C16.3236 15.3261 16.3254 15.3297 16.3267 15.3323C16.3273 15.3337 16.3279 15.3347 16.3283 15.3356C16.3285 15.336 16.3287 15.3364 16.3288 15.3367C16.3289 15.3368 16.329 15.337 16.329 15.3371C16.3291 15.3372 16.3292 15.3374 17 15.002ZM11.25 16.002C11.25 17.2446 10.2426 18.252 9 18.252V19.752C11.0711 19.752 12.75 18.073 12.75 16.002H11.25ZM9 18.252C7.75736 18.252 6.75 17.2446 6.75 16.002H5.25C5.25 18.073 6.92893 19.752 9 19.752V18.252ZM6.75 16.002V15.002H5.25V16.002H6.75ZM12.75 16.002V15.002H11.25V16.002H12.75Z" fill="white"/>
</svg>
