<svg width="18" height="18" viewBox="0 0 18 18" fill="none" xmlns="http://www.w3.org/2000/svg">
<path d="M8.25 14C8.25 14.4142 8.58579 14.75 9 14.75C9.41421 14.75 9.75 14.4142 9.75 14H8.25ZM9.75 7C9.75 6.58579 9.41422 6.25 9 6.25C8.58579 6.25 8.25 6.58579 8.25 7H9.75ZM8.25 4.00996C8.25 4.42418 8.58579 4.75996 9 4.75996C9.41421 4.75996 9.75 4.42418 9.75 4.00996H8.25ZM9.75 3.99997C9.75 3.58576 9.41421 3.24997 9 3.24997C8.58579 3.24997 8.25 3.58576 8.25 3.99997H9.75ZM9.75 14L9.75 7H8.25L8.25 14H9.75ZM9.75 4.00996V3.99997H8.25V4.00996H9.75ZM5 1.75H13V0.25H5V1.75ZM16.25 5V13H17.75V5H16.25ZM13 16.25H5V17.75H13V16.25ZM1.75 13V5H0.25V13H1.75ZM5 16.25C3.20507 16.25 1.75 14.7949 1.75 13H0.25C0.25 15.6234 2.37665 17.75 5 17.75V16.25ZM16.25 13C16.25 14.7949 14.7949 16.25 13 16.25V17.75C15.6234 17.75 17.75 15.6234 17.75 13H16.25ZM13 1.75C14.7949 1.75 16.25 3.20507 16.25 5H17.75C17.75 2.37665 15.6234 0.25 13 0.25V1.75ZM5 0.25C2.37665 0.25 0.25 2.37665 0.25 5H1.75C1.75 3.20507 3.20507 1.75 5 1.75V0.25Z" fill="#0F2633"/>
</svg>
