<svg width="20" height="20" viewBox="0 0 20 20" fill="none" xmlns="http://www.w3.org/2000/svg">
<path d="M5.5 9.5H5.51M9.5 9.5H9.51M13.5 9.5H13.51M1.00003 9.50003C0.996587 10.8199 1.30496 12.1219 1.90003 13.3C2.6056 14.7118 3.69028 15.8992 5.03258 16.7293C6.37488 17.5594 7.92179 17.9994 9.50003 18C10.8199 18.0035 12.1219 17.6951 13.3 17.1L19 19L17.1 13.3C17.6951 12.1219 18.0035 10.8199 18 9.50003C17.9994 7.92179 17.5594 6.37488 16.7293 5.03258C15.8992 3.69028 14.7118 2.6056 13.3 1.90003C12.1219 1.30496 10.8199 0.996587 9.50003 1.00003H9.00003C6.91568 1.11502 4.94699 1.99479 3.47089 3.47089C1.99479 4.94699 1.11502 6.91568 1.00003 9.00003V9.50003Z" stroke="white" stroke-width="1.5" stroke-linecap="round" stroke-linejoin="round"/>
</svg>
