<svg width="18" height="19" viewBox="0 0 18 19" fill="none" xmlns="http://www.w3.org/2000/svg">
<path d="M2 8.00005V7.25005H1.25V8.00005H2ZM16 8.00005H16.75V7.25005H16V8.00005ZM16 18.0001V18.7501C16.4142 18.7501 16.75 18.4143 16.75 18.0001H16ZM2 18.0001H1.25C1.25 18.4143 1.58579 18.7501 2 18.7501V18.0001ZM1 5.00005V4.25005C0.585786 4.25005 0.25 4.58584 0.25 5.00005H1ZM17 5.00005H17.75C17.75 4.58584 17.4142 4.25005 17 4.25005V5.00005ZM17 8.00005V8.75005C17.4142 8.75005 17.75 8.41427 17.75 8.00005H17ZM1 8.00005H0.25C0.25 8.41427 0.585786 8.75005 1 8.75005L1 8.00005ZM8.86591 4.85003L8.14147 4.65588L7.94732 5.38032L8.67176 5.57447L8.86591 4.85003ZM14.0621 1.85003L14.7116 1.47503L14.0621 1.85003ZM9.06232 4.85003L9.25647 5.57447L9.9809 5.38032L9.78675 4.65588L9.06232 4.85003ZM3.86617 1.85003L3.21665 1.47503L3.86617 1.85003ZM2 8.75005H16V7.25005H2V8.75005ZM15.25 8.00005V18.0001H16.75V8.00005H15.25ZM16 17.2501H2V18.7501H16V17.2501ZM2.75 18.0001V8.00005H1.25V18.0001H2.75ZM1 5.75005H17V4.25005H1V5.75005ZM16.25 5.00005V8.00005H17.75V5.00005H16.25ZM17 7.25005H1V8.75005H17V7.25005ZM1.75 8.00005V5.00005H0.25V8.00005H1.75ZM9.59034 5.04418C9.81892 4.1913 10.6426 2.92573 11.5705 2.19735C12.0346 1.833 12.4228 1.68425 12.6937 1.68457C12.8907 1.6848 13.1444 1.76054 13.4125 2.22503L14.7116 1.47503C14.2297 0.640453 13.5275 0.185553 12.6954 0.184572C11.9372 0.183678 11.223 0.563138 10.6443 1.01745C9.4864 1.92637 8.46201 3.45986 8.14147 4.65588L9.59034 5.04418ZM13.4125 2.22503C13.6807 2.68956 13.6195 2.94718 13.5212 3.11794C13.386 3.3527 13.0631 3.61449 12.5156 3.83428C11.4208 4.27369 9.913 4.35419 9.06006 4.1256L8.67176 5.57447C9.86792 5.89504 11.7082 5.77466 13.0743 5.22633C13.7571 4.95226 14.4428 4.52347 14.8211 3.86634C15.2363 3.14521 15.1934 2.30962 14.7116 1.47503L13.4125 2.22503ZM9.78675 4.65588C9.46621 3.45986 8.44182 1.92637 7.28393 1.01745C6.70518 0.563138 5.99101 0.183678 5.23278 0.184572C4.40069 0.185553 3.69849 0.640453 3.21665 1.47503L4.51569 2.22503C4.78386 1.76054 5.03754 1.6848 5.23455 1.68457C5.50543 1.68425 5.89359 1.833 6.35773 2.19735C7.28564 2.92573 8.10931 4.1913 8.33788 5.04418L9.78675 4.65588ZM3.21665 1.47503C2.7348 2.30962 2.69191 3.14521 3.10708 3.86634C3.48539 4.52347 4.17109 4.95226 4.85392 5.22633C6.22001 5.77466 8.0603 5.89504 9.25647 5.57447L8.86817 4.1256C8.01522 4.35419 6.50739 4.27369 5.41266 3.83428C4.86508 3.61449 4.54219 3.3527 4.40704 3.11794C4.30873 2.94718 4.24749 2.68956 4.51569 2.22503L3.21665 1.47503Z" fill="#0F2633"/>
</svg>
