<?xml version="1.0" encoding="UTF-8" standalone="no" ?>
<!DOCTYPE svg PUBLIC "-//W3C//DTD SVG 1.1//EN" "http://www.w3.org/Graphics/SVG/1.1/DTD/svg11.dtd">
<svg xmlns="http://www.w3.org/2000/svg" xmlns:xlink="http://www.w3.org/1999/xlink" version="1.1" width="16" height="20" viewBox="0 0 16 20" xml:space="preserve">
<desc>Created with Fabric.js 3.6.3</desc>
<defs>
</defs>
<g transform="matrix(1 0 0 1 8.25 10.25)"  >
<path style="stroke: none; stroke-width: 1; stroke-dasharray: none; stroke-linecap: butt; stroke-dashoffset: 0; stroke-linejoin: miter; stroke-miterlimit: 4; fill: rgb(61,142,187); fill-rule: nonzero; opacity: 1;"  transform=" translate(-8, -10)" d="M 1 9 V 8.25 C 0.585786 8.25 0.25 8.58579 0.25 9 H 1 Z M 15 9 H 15.75 C 15.75 8.58579 15.4142 8.25 15 8.25 V 9 Z M 15 19 V 19.75 C 15.4142 19.75 15.75 19.4142 15.75 19 H 15 Z M 1 19 H 0.25 C 0.25 19.4142 0.585786 19.75 1 19.75 L 1 19 Z M 1 9.75 H 15 V 8.25 H 1 V 9.75 Z M 14.25 9 V 19 H 15.75 V 9 H 14.25 Z M 15 18.25 H 1 V 19.75 H 15 V 18.25 Z M 1.75 19 V 9 H 0.25 V 19 H 1.75 Z M 4.75 5 C 4.75 3.20507 6.20507 1.75 8 1.75 V 0.25 C 5.37665 0.25 3.25 2.37665 3.25 5 H 4.75 Z M 8 1.75 C 9.79493 1.75 11.25 3.20507 11.25 5 H 12.75 C 12.75 2.37665 10.6234 0.25 8 0.25 V 1.75 Z M 3.25 5 V 9 H 4.75 V 5 H 3.25 Z M 11.25 5 V 9 H 12.75 V 5 H 11.25 Z" stroke-linecap="round" />
</g>
</svg>