<svg width="19" height="19" viewBox="0 0 19 19" fill="none" xmlns="http://www.w3.org/2000/svg">
<path d="M5 10L4.46967 9.46967C4.32902 9.61032 4.25 9.80109 4.25 10H5ZM14 1L14.5303 0.46967C14.2374 0.176777 13.7626 0.176777 13.4697 0.46967L14 1ZM18 5L18.5303 5.53033C18.8232 5.23744 18.8232 4.76256 18.5303 4.46967L18 5ZM9 14V14.75C9.19891 14.75 9.38968 14.671 9.53033 14.5303L9 14ZM5 14H4.25C4.25 14.4142 4.58579 14.75 5 14.75V14ZM17 18V18.75C17.1989 18.75 17.3897 18.671 17.5303 18.5303C17.671 18.3897 17.75 18.1989 17.75 18H17ZM1 18H0.25C0.25 18.4142 0.585786 18.75 1 18.75L1 18ZM1 2L1 1.25C0.585788 1.25 0.250001 1.58579 0.250001 2L1 2ZM9 2.75C9.41421 2.75 9.75 2.41421 9.75 2C9.75 1.58579 9.41421 1.25 9 1.25V2.75ZM17.75 10C17.75 9.58579 17.4142 9.25 17 9.25C16.5858 9.25 16.25 9.58579 16.25 10H17.75ZM5.53033 10.5303L14.5303 1.53033L13.4697 0.46967L4.46967 9.46967L5.53033 10.5303ZM13.4697 1.53033L17.4697 5.53033L18.5303 4.46967L14.5303 0.46967L13.4697 1.53033ZM17.4697 4.46967L8.46967 13.4697L9.53033 14.5303L18.5303 5.53033L17.4697 4.46967ZM9 13.25H5V14.75H9V13.25ZM5.75 14V10H4.25V14H5.75ZM10.4697 4.53033L14.4697 8.53033L15.5303 7.46967L11.5303 3.46967L10.4697 4.53033ZM17 17.25L1 17.25L1 18.75L17 18.75V17.25ZM1.75 18L1.75 2L0.250001 2L0.25 18H1.75ZM1 2.75L9 2.75V1.25L1 1.25L1 2.75ZM16.25 10V18H17.75V10H16.25Z" fill="white"/>
</svg>
